<svg xmlns="http://www.w3.org/2000/svg" viewBox="0 0 69.55 49.72"><defs><style>.cls-1{fill:#fff;}</style></defs><title>email</title><g id="Layer_2" data-name="Layer 2"><g id="Layer_1-2" data-name="Layer 1"><g id="NGmLJE.tif"><path d="M0,43.47V6.26l.33-1a7.37,7.37,0,0,1,5-5l1-.32h57c.19.06.37.13.56.18a7.35,7.35,0,0,1,5,3.84c.29.55.49,1.14.74,1.72V43.47a28.22,28.22,0,0,1-1.45,3.27,7.55,7.55,0,0,1-4.29,3H5.74c-.26-.11-.51-.23-.77-.33A7.32,7.32,0,0,1,.52,45.1C.31,44.57.17,44,0,43.47ZM7.44,4c.29.31.46.5.64.68q12.76,12.81,25.54,25.6c1.07,1.07,1.51,1.07,2.59,0l25.4-25.5c.21-.21.41-.44.7-.77ZM11.06,46H58.18L41.88,29.92c-1.76,1.75-3.67,3.64-5.57,5.54-1.23,1.22-1.57,1.21-2.78,0-2-2-4-3.94-5.92-5.82ZM44.77,27c.21.22.39.43.59.63,5.84,5.88,11.69,11.74,17.51,17.64a1.06,1.06,0,0,0,1.67.1A4,4,0,0,0,65.82,42q0-17.64,0-35.28a2.72,2.72,0,0,0,0-.43ZM4.16,6.31V34c0,3,0,6,0,8.95a4.6,4.6,0,0,0,.72,2.24c.52.82,1,.76,1.64.07L24.29,27.46l.6-.65Z"/><path class="cls-1" d="M7.44,4H62.31c-.29.33-.49.56-.7.77l-25.4,25.5c-1.08,1.08-1.52,1.08-2.59,0Q20.84,17.47,8.08,4.67C7.9,4.49,7.73,4.3,7.44,4Z"/><path class="cls-1" d="M11.06,46,27.61,29.66c1.92,1.88,3.92,3.84,5.92,5.82,1.21,1.19,1.55,1.2,2.78,0,1.9-1.9,3.81-3.79,5.57-5.54L58.18,46Z"/><path class="cls-1" d="M44.77,27l21-20.79a2.72,2.72,0,0,1,0,.43q0,17.64,0,35.28a4,4,0,0,1-1.28,3.45,1.06,1.06,0,0,1-1.67-.1c-5.82-5.9-11.67-11.76-17.51-17.64C45.16,27.47,45,27.26,44.77,27Z"/><path class="cls-1" d="M4.16,6.31l20.73,20.5-.6.65L6.56,45.25c-.69.69-1.12.75-1.64-.07a4.6,4.6,0,0,1-.72-2.24c-.09-3,0-6,0-8.95V6.31Z"/></g></g></g></svg>