<svg xmlns="http://www.w3.org/2000/svg" viewBox="0 0 45.01 65"><defs><style>.cls-1{fill:#fff;}.cls-2{fill:#555;}</style></defs><title>Location</title><g id="Layer_2" data-name="Layer 2"><g id="Layer_1-2" data-name="Layer 1"><g id="TI349v.tif"><path d="M23.86,0c.8.12,1.61.22,2.4.35a22,22,0,0,1,7.83,2.89,22.64,22.64,0,0,1,6,5.21,21.71,21.71,0,0,1,4,7.45,20,20,0,0,1-.16,12.73,73.6,73.6,0,0,1-5.52,12.16q-3.39,6-7.1,11.81c-2.27,3.56-4.73,7-7.12,10.5-.45.65-.95,1.27-1.43,1.9h-.41c-.88-1.18-1.78-2.34-2.61-3.54-1.62-2.35-3.25-4.69-4.8-7.08-1.85-2.85-3.7-5.71-5.42-8.64s-3.42-6.08-5-9.19A49.84,49.84,0,0,1,.56,26.64a18,18,0,0,1-.34-7.35A22,22,0,0,1,3.78,10a22.61,22.61,0,0,1,7.06-6.74A23.27,23.27,0,0,1,20.14.13L21.27,0ZM22.5,60.17c.2-.27.36-.46.49-.65,1.62-2.39,3.27-4.76,4.85-7.17s3.24-5,4.75-7.6c1.71-2.9,3.33-5.86,4.92-8.83a49,49,0,0,0,3.73-8.87A14.86,14.86,0,0,0,42,22.57a19.08,19.08,0,0,0-4.31-12.23A19.53,19.53,0,0,0,18,3.56a19.07,19.07,0,0,0-7,3.25A19.52,19.52,0,0,0,6.13,12a19.27,19.27,0,0,0-2.56,5.92,14.94,14.94,0,0,0-.46,5.9A32.35,32.35,0,0,0,4.48,29.1a56.68,56.68,0,0,0,4.3,9.25c2,3.43,3.92,6.87,6,10.23,1.79,2.92,3.73,5.74,5.62,8.59C21.06,58.16,21.76,59.12,22.5,60.17Z"/><path class="cls-1" d="M22.5,60.17c-.74-1.05-1.44-2-2.1-3-1.89-2.85-3.83-5.67-5.62-8.59-2.08-3.36-4-6.8-6-10.23a56.68,56.68,0,0,1-4.3-9.25,32.35,32.35,0,0,1-1.37-5.31,14.94,14.94,0,0,1,.46-5.9A19.27,19.27,0,0,1,6.13,12,19.52,19.52,0,0,1,11,6.81,19.31,19.31,0,0,1,25.9,3.34a19.21,19.21,0,0,1,11.82,7A19.08,19.08,0,0,1,42,22.57a14.86,14.86,0,0,1-.79,4.48,49,49,0,0,1-3.73,8.87c-1.59,3-3.21,5.93-4.92,8.83-1.51,2.57-3.12,5.09-4.75,7.6S24.61,57.13,23,59.52C22.86,59.71,22.7,59.9,22.5,60.17ZM13.93,22.61A8.59,8.59,0,1,0,22.32,14,8.6,8.6,0,0,0,13.93,22.61Z"/><path d="M13.93,22.61a8.59,8.59,0,1,1,8.7,8.52A8.56,8.56,0,0,1,13.93,22.61Zm8.6,6.49a6.56,6.56,0,1,0-6.59-6.54A6.57,6.57,0,0,0,22.53,29.1Z"/><path class="cls-2" d="M22.53,29.1a6.56,6.56,0,1,1,6.55-6.58A6.58,6.58,0,0,1,22.53,29.1Z"/></g></g></g></svg>