<svg xmlns="http://www.w3.org/2000/svg" viewBox="0 0 58.92 59.02"><defs><style>.cls-1{fill:#fff;stroke:#020202;stroke-miterlimit:10;stroke-width:4px;}</style></defs><title>phone</title><g id="Layer_2" data-name="Layer 2"><g id="Layer_1-2" data-name="Layer 1"><g id="oSOejJ.tif"><path class="cls-1" d="M14.06,2a4.17,4.17,0,0,1,1.78,2.06c1.37,2.43,2.71,4.89,4.09,7.31.49.87,1.11,1.67,1.61,2.54a2,2,0,0,1-.29,2.79c-.95,1-2,1.89-3,2.82-.84.76-1.71,1.49-2.54,2.27a1.93,1.93,0,0,0-.47,2.58c1.19,2,2.33,4.11,3.64,6.07A37.09,37.09,0,0,0,31.52,42c1,.57,2,1.15,3,1.7a2,2,0,0,0,2.64-.49c.83-.92,1.64-1.88,2.47-2.81s1.66-1.88,2.57-2.73a2,2,0,0,1,2.85-.28c2.79,1.61,5.57,3.25,8.35,4.88.79.45,1.62.85,2.36,1.36a7.29,7.29,0,0,1,1.14,1.21v1.36c-.13.64-.28,1.28-.4,1.92-.41,2.09-1.16,4-3.06,5.18a30.68,30.68,0,0,1-4.69,2.58A32.14,32.14,0,0,1,44,57h-.54a12.07,12.07,0,0,1-1.82-.22c-2-.53-3.9-1-5.81-1.7a43.59,43.59,0,0,1-8.72-3.81,59.53,59.53,0,0,1-11.7-9.65A52.31,52.31,0,0,1,7.17,31a60.33,60.33,0,0,1-4.3-10.66,18.06,18.06,0,0,1-.81-3.93C1.67,12.18,3.28,8.54,5.79,5.21A6.09,6.09,0,0,1,9.33,2.82L12.83,2Z"/></g></g></g></svg>